<svg xmlns="http://www.w3.org/2000/svg" width="32" height="31.153" viewBox="0 0 32 31.153">
  <g id="Icon" transform="translate(1 1)">
    <path id="Path" d="M.5,10V0" transform="translate(15.5 8)" fill="none" stroke="#fff" stroke-linecap="square" stroke-miterlimit="10" stroke-width="2"/>
    <path id="Path-2" data-name="Path" d="M.5,0V13" transform="translate(19.5 8)" fill="none" stroke="#fff" stroke-linecap="square" stroke-miterlimit="10" stroke-width="2"/>
    <path id="Path-3" data-name="Path" d="M0,2A2.006,2.006,0,0,1,2,0C5,0,6,4,6,4H2A2.006,2.006,0,0,1,0,2Z" transform="translate(12)" fill="none" stroke="#fff" stroke-linecap="square" stroke-miterlimit="10" stroke-width="2"/>
    <path id="Path-4" data-name="Path" d="M6,2A2.006,2.006,0,0,0,4,0C1,0,0,4,0,4H4A2.006,2.006,0,0,0,6,2Z" transform="translate(18)" fill="none" stroke="#fff" stroke-linecap="square" stroke-miterlimit="10" stroke-width="2"/>
    <path id="Path-5" data-name="Path" d="M3,0V13H0" transform="translate(24 8)" fill="none" stroke="#fff" stroke-linecap="square" stroke-miterlimit="10" stroke-width="2"/>
    <path id="Path-6" data-name="Path" d="M.5,8V0" transform="translate(8.5 8)" fill="none" stroke="#fff" stroke-linecap="square" stroke-miterlimit="10" stroke-width="2"/>
    <rect id="Rectangle" width="24" height="4" transform="translate(6 4)" fill="none" stroke="#fff" stroke-linecap="square" stroke-miterlimit="10" stroke-width="2"/>
    <path id="Path-7" data-name="Path" d="M19.349,5H25c3.6,0,4,2,4,2L14.7,12.8a4.276,4.276,0,0,1-3.5-.1L0,7V0H5a7.528,7.528,0,0,1,6,3h4a4.3,4.3,0,0,1,4,4H10" transform="translate(0 16)" fill="none" stroke="#fff" stroke-linecap="square" stroke-miterlimit="10" stroke-width="2"/>
  </g>
</svg>
